# xmcd
#
# Track frame offsets:
#	150
#	37526
#	59934
#	88319
#	104287
#	134546
#	165910
#	185133
#	205610
#	223078
#	250075
#	275545
#	311829
#	336126
#
# Disc length: 4680
#
# Revision: 2
# Processed by: cddbd v1.5.1PL0 Copyright (c) Steve Scherf et al.
# Submitted via: CDex 1.51
# Normalized: r1:TDELIM( - )
#
DISCID=d212460e
DTITLE=Jazz Improv - Vol. 4 Number 3 - Red
DYEAR=1900
DGENRE=Jazz
TTITLE0=Art Blakey and the Jazz Messengers - In Walked Bud
TTITLE1=Jim Gailloreto - The Insider
TTITLE2=Ron Blake - Mighty Burner
TTITLE3=Jackie Allen - You Could Be Fred
TTITLE4=Tom Wright and Zach Brock - Deadline City
TTITLE5=Art Blakey - Just Knock On My Door
TTITLE6=Steve Yeager - New Groove Blues
TTITLE7=Al Basile - B. D.
TTITLE8=G-Fire - Vernon Neilly - Passin' Thru
TTITLE9=Kari Gaffney - Summertime
TTITLE10=Fats Navarro - Webb City
TTITLE11=Frank Macchia - The Birds of Tower Island
TTITLE12=Reuben Hoch - Keli Atoh
TTITLE13=Novak and Haar - J&M Blues
EXTD=
EXTT0=
EXTT1=
EXTT2=
EXTT3=
EXTT4=
EXTT5=
EXTT6=
EXTT7=
EXTT8=
EXTT9=
EXTT10=
EXTT11=
EXTT12=
EXTT13=
PLAYORDER=
